<?xml version="1.0" encoding="UTF-8"?>
<svg xmlns="http://www.w3.org/2000/svg" xmlns:xlink="http://www.w3.org/1999/xlink" width="520px" height="552px" viewBox="0 0 520 552" version="1.1">
<g id="surface1">
<path style=" stroke:none;fill-rule:nonzero;fill:rgb(94.509804%,96.470588%,100%);fill-opacity:1;" d="M 214.617188 543.984375 L 206.320312 179.28125 L 51.671875 179.28125 L 53.9375 543.984375 Z M 214.617188 543.984375 "/>
<path style=" stroke:none;fill-rule:nonzero;fill:rgb(99.607843%,98.823529%,92.941176%);fill-opacity:1;" d="M 269.6875 542.101562 L 269.6875 300.722656 L 456.394531 306.171875 L 456.394531 542.101562 Z M 269.6875 542.101562 "/>
<path style=" stroke:none;fill-rule:nonzero;fill:rgb(45.098039%,59.607843%,96.862745%);fill-opacity:1;" d="M 51.671875 179.28125 L 53.9375 543.984375 L 141.820312 543.984375 L 137.671875 179.28125 Z M 51.671875 179.28125 "/>
<path style=" stroke:none;fill-rule:nonzero;fill:rgb(12.156863%,11.372549%,25.882353%);fill-opacity:1;" d="M 162.941406 142.324219 L 98.820312 142.324219 L 98.820312 179.285156 L 162.941406 179.285156 Z M 162.941406 142.324219 "/>
<path style=" stroke:none;fill-rule:nonzero;fill:rgb(12.156863%,9.019608%,9.019608%);fill-opacity:1;" d="M 98.820312 142.324219 L 98.820312 179.285156 L 142.195312 179.285156 C 121.375 174.757812 114.914062 152.757812 114.285156 142.324219 Z M 98.820312 142.324219 "/>
<path style=" stroke:none;fill-rule:nonzero;fill:rgb(5.490196%,9.019608%,23.921569%);fill-opacity:1;" d="M 135.785156 79.335938 L 128.242188 78.582031 C 126.355469 77.828125 125.980469 69.15625 133.144531 71.039062 C 138.878906 72.550781 137.292969 77.199219 135.785156 79.335938 Z M 135.785156 79.335938 "/>
<path style=" stroke:none;fill-rule:nonzero;fill:rgb(5.490196%,9.019608%,23.921569%);fill-opacity:1;" d="M 135.785156 79.339844 L 128.242188 78.585938 L 128.242188 89.519531 L 135.785156 90.277344 Z M 135.785156 79.339844 "/>
<path style=" stroke:none;fill-rule:nonzero;fill:rgb(12.156863%,11.372549%,25.882353%);fill-opacity:1;" d="M 128.242188 89.519531 L 135.785156 90.273438 L 163.699219 110.265625 L 98.445312 110.265625 Z M 128.242188 89.519531 "/>
<path style=" stroke:none;fill-rule:nonzero;fill:rgb(10.588235%,16.470588%,38.823529%);fill-opacity:1;" d="M 288.167969 358.804688 L 282.132812 358.804688 L 282.132812 401.800781 L 279.492188 401.800781 L 279.492188 406.328125 L 290.808594 406.328125 L 290.808594 400.292969 L 288.167969 400.292969 Z M 288.167969 358.804688 "/>
<path style=" stroke:none;fill-rule:nonzero;fill:rgb(63.921569%,74.117647%,100%);fill-opacity:1;" d="M 456.394531 545.117188 L 269.6875 545.117188 L 269.6875 421.410156 L 456.394531 424.136719 Z M 456.394531 545.117188 "/>
<path style=" stroke:none;fill-rule:nonzero;fill:rgb(2.352941%,19.215686%,51.372549%);fill-opacity:1;" d="M 399.0625 215.867188 L 197.265625 209.453125 L 269.6875 300.722656 L 463.558594 306.382812 Z M 399.0625 215.867188 "/>
<path style=" stroke:none;fill-rule:nonzero;fill:rgb(43.921569%,52.941176%,98.431373%);fill-opacity:1;" d="M 269.6875 300.722656 L 463.558594 306.382812 L 281.378906 212.125 L 197.265625 209.453125 Z M 269.6875 300.722656 "/>
<path style=" stroke:none;fill-rule:nonzero;fill:rgb(81.176471%,87.058824%,95.294118%);fill-opacity:1;" d="M 197.265625 209.453125 L 269.6875 300.722656 L 269.6875 539.460938 L 136.164062 545.871094 L 136.164062 300.722656 L 171.996094 253.582031 L 164.074219 253.582031 Z M 197.265625 209.453125 "/>
<path style=" stroke:none;fill-rule:nonzero;fill:rgb(4.705882%,9.411765%,24.705882%);fill-opacity:1;" d="M 223.292969 264.894531 L 183.6875 264.894531 L 183.6875 312.414062 L 223.292969 312.414062 Z M 223.292969 264.894531 "/>
<path style=" stroke:none;fill-rule:nonzero;fill:rgb(12.156863%,19.607843%,41.960784%);fill-opacity:1;" d="M 188.214844 269.796875 L 201.792969 269.796875 L 201.792969 286.390625 L 188.214844 286.390625 Z M 188.214844 269.796875 "/>
<path style=" stroke:none;fill-rule:nonzero;fill:rgb(12.156863%,19.607843%,41.960784%);fill-opacity:1;" d="M 207.074219 269.796875 L 220.652344 269.796875 L 220.652344 286.390625 L 207.074219 286.390625 Z M 207.074219 269.796875 "/>
<path style=" stroke:none;fill-rule:nonzero;fill:rgb(12.156863%,19.607843%,41.960784%);fill-opacity:1;" d="M 207.074219 292.425781 L 220.652344 292.425781 L 220.652344 309.023438 L 207.074219 309.023438 Z M 207.074219 292.425781 "/>
<path style="fill:none;stroke-width:1;stroke-linecap:butt;stroke-linejoin:miter;stroke:rgb(0%,0%,0%);stroke-opacity:1;stroke-miterlimit:4;" d="M 110.561659 123.844684 L 188.926983 123.844684 L 188.926983 125.963825 L 104.630409 125.963825 L 104.630409 123.844684 Z M 110.561659 123.844684 " transform="matrix(0.890411,0,0,0.890323,0,0)"/>
<path style="fill:none;stroke-width:4;stroke-linecap:butt;stroke-linejoin:miter;stroke:rgb(0%,0%,0%);stroke-opacity:1;stroke-miterlimit:4;" d="M 150.803786 378.009935 L 512.991707 378.009935 " transform="matrix(0.890411,0,0,0.890323,0,0)"/>
<path style="fill:none;stroke-width:5;stroke-linecap:butt;stroke-linejoin:miter;stroke:rgb(0%,0%,0%);stroke-opacity:1;stroke-miterlimit:4;" d="M 151.650481 486.459041 L 511.298317 486.459041 " transform="matrix(0.890411,0,0,0.890323,0,0)"/>
<path style="fill:none;stroke-width:6;stroke-linecap:butt;stroke-linejoin:miter;stroke:rgb(32.156863%,40.392157%,98.039216%);stroke-opacity:1;stroke-miterlimit:4;" d="M 151.650481 486.459041 L 301.186418 486.459041 " transform="matrix(0.890411,0,0,0.890323,0,0)"/>
<path style=" stroke:none;fill-rule:nonzero;fill:rgb(12.156863%,19.607843%,41.960784%);fill-opacity:1;" d="M 188.214844 292.425781 L 201.792969 292.425781 L 201.792969 309.023438 L 188.214844 309.023438 Z M 188.214844 292.425781 "/>
<path style=" stroke:none;fill-rule:nonzero;fill:rgb(5.490196%,9.019608%,23.921569%);fill-opacity:1;" d="M 101.082031 258.105469 L 81.09375 258.105469 L 81.09375 312.414062 L 102.59375 312.414062 Z M 101.082031 258.105469 "/>
<path style=" stroke:none;fill-rule:nonzero;fill:rgb(4.705882%,9.803922%,24.705882%);fill-opacity:1;" d="M 101.082031 352.015625 L 81.09375 352.015625 L 81.09375 406.328125 L 102.59375 406.328125 Z M 101.082031 352.015625 "/>
<path style=" stroke:none;fill-rule:nonzero;fill:rgb(12.156863%,11.372549%,25.882353%);fill-opacity:1;" d="M 102.214844 237.738281 L 81.847656 237.738281 L 81.847656 196.253906 C 86.675781 182.675781 94.671875 190.597656 98.066406 196.253906 Z M 102.214844 237.738281 "/>
<path style=" stroke:none;fill-rule:nonzero;fill:rgb(12.156863%,19.607843%,41.960784%);fill-opacity:1;" d="M 313.441406 220.015625 L 291.941406 220.015625 L 273.082031 214.355469 L 273.082031 177.398438 L 291.941406 176.886719 L 314.949219 176.265625 L 314.847656 179.28125 Z M 313.441406 220.015625 "/>
<path style=" stroke:none;fill-rule:nonzero;fill:rgb(99.607843%,99.215686%,90.980392%);fill-opacity:1;" d="M 313.441406 220.015625 L 291.941406 220.015625 L 291.941406 176.886719 L 314.949219 176.265625 L 314.847656 179.28125 Z M 313.441406 220.015625 "/>
<path style=" stroke:none;fill-rule:nonzero;fill:rgb(6.666667%,18.431373%,49.803922%);fill-opacity:1;" d="M 273.082031 177.398438 L 291.941406 176.886719 L 314.949219 176.265625 L 314.847656 179.28125 L 273.082031 179.28125 Z M 273.082031 177.398438 "/>
<path style=" stroke:none;fill-rule:nonzero;fill:rgb(4.705882%,9.803922%,25.882353%);fill-opacity:1;" d="M 161.058594 112.148438 L 162.566406 112.148438 L 162.566406 142.324219 L 161.058594 142.324219 Z M 161.058594 112.148438 "/>
<path style=" stroke:none;fill-rule:nonzero;fill:rgb(4.705882%,9.803922%,25.882353%);fill-opacity:1;" d="M 214.617188 148.355469 L 214.617188 149.863281 L 45.636719 149.863281 L 45.636719 148.355469 Z M 214.617188 148.355469 "/>
<path style=" stroke:none;fill-rule:nonzero;fill:rgb(4.705882%,9.803922%,25.882353%);fill-opacity:1;" d="M 214.617188 177.773438 L 214.617188 179.28125 L 45.636719 179.28125 L 45.636719 177.773438 Z M 214.617188 177.773438 "/>
<path style="fill:none;stroke-width:4;stroke-linecap:butt;stroke-linejoin:miter;stroke:rgb(9.411765%,14.901961%,36.470588%);stroke-opacity:1;stroke-miterlimit:4;" d="M 58.000781 231.868207 L 232.498858 231.868207 " transform="matrix(0.890411,0,0,0.890323,0,0)"/>
<path style=" stroke:none;fill-rule:nonzero;fill:rgb(3.137255%,7.45098%,20.392157%);fill-opacity:1;" d="M 214.617188 165.703125 L 214.617188 167.214844 L 45.636719 167.214844 L 45.636719 165.703125 Z M 214.617188 165.703125 "/>
<path style=" stroke:none;fill-rule:nonzero;fill:rgb(7.45098%,13.72549%,33.333333%);fill-opacity:1;" d="M 98.445312 112.148438 L 99.953125 112.148438 L 99.953125 142.324219 L 98.445312 142.324219 Z M 98.445312 112.148438 "/>
<path style=" stroke:none;fill-rule:nonzero;fill:rgb(7.45098%,13.72549%,33.333333%);fill-opacity:1;" d="M 114.285156 117.429688 L 115.792969 117.429688 L 115.792969 142.320312 L 114.285156 142.320312 Z M 114.285156 117.429688 "/>
<path style=" stroke:none;fill-rule:nonzero;fill:rgb(7.45098%,13.72549%,33.333333%);fill-opacity:1;" d="M 117.304688 117.429688 L 118.8125 117.429688 L 118.8125 142.320312 L 117.304688 142.320312 Z M 117.304688 117.429688 "/>
<path style=" stroke:none;fill-rule:nonzero;fill:rgb(7.45098%,13.72549%,33.333333%);fill-opacity:1;" d="M 121.828125 117.429688 L 123.339844 117.429688 L 123.339844 142.320312 L 121.828125 142.320312 Z M 121.828125 117.429688 "/>
<path style="fill:none;stroke-width:4;stroke-linecap:butt;stroke-linejoin:miter;stroke:rgb(63.921569%,74.117647%,100%);stroke-opacity:1;stroke-miterlimit:4;" d="M 221.544471 235.255322 L 227.260757 244.15308 M 302.879808 337.768201 L 296.720433 330.147192 M 227.260757 244.15308 L 453.30631 249.659335 M 227.260757 244.15308 L 237.521995 256.859149 M 237.521995 256.859149 L 462.0628 261.944209 M 237.521995 256.859149 L 248.814183 270.841967 M 248.814183 270.841967 L 470.814904 274.229082 M 248.814183 270.841967 L 257.974279 282.17915 M 257.974279 282.17915 L 479.567007 286.513955 M 257.974279 282.17915 L 269.003245 295.832909 M 269.003245 295.832909 L 488.420012 298.939227 M 269.003245 295.832909 L 278.242308 307.271003 M 278.242308 307.271003 L 497.738041 312.018229 M 278.242308 307.271003 L 290.561058 322.521796 M 290.561058 322.521796 L 505.222296 322.521796 M 290.561058 322.521796 L 296.720433 330.147192 M 296.720433 330.147192 L 512.917127 333.323709 " transform="matrix(0.890411,0,0,0.890323,0,0)"/>
<path style=" stroke:none;fill-rule:nonzero;fill:rgb(7.058824%,10.588235%,22.745098%);fill-opacity:1;" d="M 74.304688 149.867188 L 75.8125 149.867188 L 75.8125 177.773438 L 74.304688 177.773438 Z M 74.304688 149.867188 "/>
<path style=" stroke:none;fill-rule:nonzero;fill:rgb(7.058824%,10.588235%,22.745098%);fill-opacity:1;" d="M 45.636719 149.867188 L 47.148438 149.867188 L 47.148438 177.773438 L 45.636719 177.773438 Z M 45.636719 149.867188 "/>
<path style=" stroke:none;fill-rule:nonzero;fill:rgb(7.058824%,10.588235%,22.745098%);fill-opacity:1;" d="M 213.109375 149.867188 L 214.617188 149.867188 L 214.617188 177.773438 L 213.109375 177.773438 Z M 213.109375 149.867188 "/>
<path style=" stroke:none;fill-rule:nonzero;fill:rgb(4.705882%,9.411765%,24.705882%);fill-opacity:1;" d="M 336.074219 454.976562 L 324.003906 454.976562 L 324.003906 516.078125 L 336.074219 516.078125 Z M 336.074219 454.976562 "/>
<path style=" stroke:none;fill-rule:nonzero;fill:rgb(9.019608%,15.294118%,37.254902%);fill-opacity:1;" d="M 324.003906 516.078125 L 336.074219 516.078125 L 336.074219 485.527344 L 324.003906 485.527344 Z M 324.003906 516.078125 "/>
<path style=" stroke:none;fill-rule:nonzero;fill:rgb(9.019608%,15.294118%,37.254902%);fill-opacity:1;" d="M 436.027344 488.167969 L 416.035156 488.167969 L 416.035156 516.832031 L 436.027344 516.832031 Z M 436.027344 488.167969 "/>
<path style="fill:none;stroke-width:3;stroke-linecap:butt;stroke-linejoin:miter;stroke:rgb(0%,0%,0%);stroke-opacity:1;stroke-miterlimit:4;" d="M 148.684856 79.790251 L 146.991466 1.00034 " transform="matrix(0.890411,0,0,0.890323,0,0)"/>
<path style=" stroke:none;fill-rule:nonzero;fill:rgb(7.058824%,10.588235%,22.745098%);fill-opacity:1;" d="M 187.460938 149.867188 L 188.96875 149.867188 L 188.96875 177.773438 L 187.460938 177.773438 Z M 187.460938 149.867188 "/>
<path style=" stroke:none;fill-rule:nonzero;fill:rgb(7.058824%,10.588235%,22.745098%);fill-opacity:1;" d="M 134.652344 149.867188 L 136.164062 149.867188 L 136.164062 177.773438 L 134.652344 177.773438 Z M 134.652344 149.867188 "/>
<path style=" stroke:none;fill-rule:nonzero;fill:rgb(7.058824%,10.588235%,22.745098%);fill-opacity:1;" d="M 69.023438 149.867188 L 70.53125 149.867188 L 70.53125 177.773438 L 69.023438 177.773438 Z M 69.023438 149.867188 "/>
<path style=" stroke:none;fill-rule:nonzero;fill:rgb(7.058824%,10.588235%,22.745098%);fill-opacity:1;" d="M 182.179688 149.867188 L 183.6875 149.867188 L 183.6875 177.773438 L 182.179688 177.773438 Z M 182.179688 149.867188 "/>
<path style=" stroke:none;fill-rule:nonzero;fill:rgb(7.058824%,10.588235%,22.745098%);fill-opacity:1;" d="M 182.179688 149.867188 L 183.6875 149.867188 L 183.6875 177.773438 L 182.179688 177.773438 Z M 182.179688 149.867188 "/>
<path style=" stroke:none;fill-rule:nonzero;fill:rgb(7.058824%,10.588235%,22.745098%);fill-opacity:1;" d="M 129.375 149.867188 L 130.882812 149.867188 L 130.882812 177.773438 L 129.375 177.773438 Z M 129.375 149.867188 "/>
<path style=" stroke:none;fill-rule:nonzero;fill:rgb(7.058824%,10.588235%,22.745098%);fill-opacity:1;" d="M 141.445312 117.429688 L 142.953125 117.429688 L 142.953125 142.320312 L 141.445312 142.320312 Z M 141.445312 117.429688 "/>
<path style=" stroke:none;fill-rule:nonzero;fill:rgb(7.058824%,10.588235%,22.745098%);fill-opacity:1;" d="M 144.460938 117.429688 L 145.96875 117.429688 L 145.96875 142.320312 L 144.460938 142.320312 Z M 144.460938 117.429688 "/>
<path style=" stroke:none;fill-rule:nonzero;fill:rgb(7.058824%,10.588235%,22.745098%);fill-opacity:1;" d="M 136.164062 117.429688 L 137.671875 117.429688 L 137.671875 142.320312 L 136.164062 142.320312 Z M 136.164062 117.429688 "/>
<path style=" stroke:none;fill-rule:nonzero;fill:rgb(5.882353%,10.980392%,28.627451%);fill-opacity:1;" d="M 416.035156 516.832031 L 436.027344 516.832031 L 436.027344 502.5 L 416.035156 502.5 Z M 416.035156 516.832031 "/>
<path style=" stroke:none;fill-rule:nonzero;fill:rgb(98.039216%,94.901961%,88.627451%);fill-opacity:1;" d="M 448.472656 495.332031 L 440.929688 495.332031 L 440.929688 511.175781 L 448.472656 510.796875 Z M 448.472656 495.332031 "/>
<path style=" stroke:none;fill-rule:nonzero;fill:rgb(5.098039%,3.137255%,3.137255%);fill-opacity:1;" d="M 178.40625 455.355469 L 178.40625 488.542969 L 182.179688 488.542969 L 182.179688 538.328125 L 188.589844 538.328125 L 188.589844 486.28125 L 184.441406 486.28125 L 184.441406 461.011719 L 221.40625 461.011719 L 221.40625 486.28125 L 215.371094 486.28125 L 215.371094 538.328125 L 219.144531 538.328125 L 219.144531 488.542969 L 226.308594 488.542969 L 226.308594 455.355469 Z M 178.40625 455.355469 "/>
<path style=" stroke:none;fill-rule:nonzero;fill:rgb(9.019608%,15.294118%,37.254902%);fill-opacity:1;" d="M 215.375 486.28125 L 215.375 538.328125 L 188.59375 538.328125 L 188.59375 486.28125 L 184.445312 486.28125 L 184.445312 461.011719 L 221.410156 461.011719 L 221.410156 486.28125 Z M 215.375 486.28125 "/>
<path style=" stroke:none;fill-rule:nonzero;fill:rgb(3.529412%,11.372549%,22.352941%);fill-opacity:1;" d="M 520 544.363281 L 0 544.363281 L 0 552 L 520 552 Z M 520 544.363281 "/>
<path style="fill:none;stroke-width:4;stroke-linecap:butt;stroke-linejoin:miter;stroke:rgb(0%,0%,0%);stroke-opacity:1;stroke-miterlimit:4;" d="M 571.874279 611.422526 L 571.874279 576.687047 M 510.026082 576.687047 L 510.026082 611.422526 M 446.484495 576.687047 L 446.484495 611.422526 M 385.908534 576.687047 L 385.908534 611.422526 M 323.213642 576.687047 L 323.213642 611.422526 M 259.250901 576.687047 L 259.250901 611.422526 M 201.636178 576.687047 L 201.636178 611.422526 M 136.826743 576.687047 L 136.826743 611.422526 M 74.131851 576.687047 L 74.131851 611.422526 M 14.402584 576.687047 L 14.402584 611.422526 " transform="matrix(0.890411,0,0,0.890323,0,0)"/>
<path style="fill:none;stroke-width:3;stroke-linecap:butt;stroke-linejoin:miter;stroke:rgb(0%,0%,0%);stroke-opacity:1;stroke-miterlimit:4;" d="M 571.874279 582.000255 C 558.599159 593.578748 527.648738 609.790393 510.026082 582.000255 C 495.623498 590.753227 462.751562 602.77924 446.484495 581.76772 C 433.7753 590.239895 403.86899 603.288185 385.908534 587.699558 C 373.339724 593.490999 343.209675 601.594627 323.213642 587.699558 C 305.705048 591.371858 268.397837 596.509567 259.250901 587.699558 C 247.388401 591.371858 219.258834 596.509567 201.636178 587.699558 C 184.553125 591.371858 147.671454 596.509567 136.826743 587.699558 C 118.752224 593.912194 89.806671 602.103572 74.131851 587.699558 C 57.079507 591.371858 23.369651 597.312472 13.498858 588.498075 " transform="matrix(0.890411,0,0,0.890323,0,0)"/>
<path style=" stroke:none;fill-rule:nonzero;fill:rgb(2.352941%,8.627451%,16.470588%);fill-opacity:1;" d="M 511.925781 511.90625 C 511.925781 513.363281 510.742188 514.542969 509.285156 514.542969 C 507.824219 514.542969 506.644531 513.363281 506.644531 511.90625 C 506.644531 510.445312 507.824219 509.265625 509.285156 509.265625 C 510.742188 509.265625 511.925781 510.445312 511.925781 511.90625 Z M 511.925781 511.90625 "/>
<path style=" stroke:none;fill-rule:nonzero;fill:rgb(2.352941%,8.627451%,16.470588%);fill-opacity:1;" d="M 456.773438 511.550781 C 456.773438 513.007812 455.589844 514.191406 454.132812 514.191406 C 452.675781 514.191406 451.492188 513.007812 451.492188 511.550781 C 451.492188 510.09375 452.675781 508.910156 454.132812 508.910156 C 455.589844 508.910156 456.773438 510.09375 456.773438 511.550781 Z M 456.773438 511.550781 "/>
<path style=" stroke:none;fill-rule:nonzero;fill:rgb(2.352941%,8.627451%,16.470588%);fill-opacity:1;" d="M 400.195312 512.304688 C 400.195312 513.765625 399.011719 514.945312 397.554688 514.945312 C 396.097656 514.945312 394.914062 513.765625 394.914062 512.304688 C 394.914062 510.847656 396.097656 509.664062 397.554688 509.664062 C 399.011719 509.664062 400.195312 510.847656 400.195312 512.304688 Z M 400.195312 512.304688 "/>
<path style=" stroke:none;fill-rule:nonzero;fill:rgb(2.352941%,8.627451%,16.470588%);fill-opacity:1;" d="M 346.308594 511.90625 C 346.308594 513.363281 345.125 514.542969 343.667969 514.542969 C 342.210938 514.542969 341.027344 513.363281 341.027344 511.90625 C 341.027344 510.445312 342.210938 509.265625 343.667969 509.265625 C 345.125 509.265625 346.308594 510.445312 346.308594 511.90625 Z M 346.308594 511.90625 "/>
<path style=" stroke:none;fill-rule:nonzero;fill:rgb(2.352941%,8.627451%,16.470588%);fill-opacity:1;" d="M 290.210938 511.90625 C 290.210938 513.363281 289.03125 514.542969 287.570312 514.542969 C 286.113281 514.542969 284.929688 513.363281 284.929688 511.90625 C 284.929688 510.445312 286.113281 509.265625 287.570312 509.265625 C 289.03125 509.265625 290.210938 510.445312 290.210938 511.90625 Z M 290.210938 511.90625 "/>
<path style=" stroke:none;fill-rule:nonzero;fill:rgb(2.352941%,8.627451%,16.470588%);fill-opacity:1;" d="M 233.476562 512.304688 C 233.476562 513.765625 232.296875 514.945312 230.839844 514.945312 C 229.378906 514.945312 228.199219 513.765625 228.199219 512.304688 C 228.199219 510.847656 229.378906 509.664062 230.839844 509.664062 C 232.296875 509.664062 233.476562 510.847656 233.476562 512.304688 Z M 233.476562 512.304688 "/>
<path style=" stroke:none;fill-rule:nonzero;fill:rgb(2.352941%,8.627451%,16.470588%);fill-opacity:1;" d="M 182.179688 511.550781 C 182.179688 513.007812 181 514.191406 179.539062 514.191406 C 178.082031 514.191406 176.898438 513.007812 176.898438 511.550781 C 176.898438 510.09375 178.082031 508.910156 179.539062 508.910156 C 181 508.910156 182.179688 510.09375 182.179688 511.550781 Z M 182.179688 511.550781 "/>
<path style=" stroke:none;fill-rule:nonzero;fill:rgb(2.352941%,8.627451%,16.470588%);fill-opacity:1;" d="M 124.59375 511.550781 C 124.59375 513.007812 123.414062 514.191406 121.957031 514.191406 C 120.496094 514.191406 119.316406 513.007812 119.316406 511.550781 C 119.316406 510.09375 120.496094 508.910156 121.957031 508.910156 C 123.414062 508.910156 124.59375 510.09375 124.59375 511.550781 Z M 124.59375 511.550781 "/>
<path style=" stroke:none;fill-rule:nonzero;fill:rgb(2.352941%,8.627451%,16.470588%);fill-opacity:1;" d="M 68.5 513.058594 C 68.5 514.515625 67.316406 515.699219 65.859375 515.699219 C 64.402344 515.699219 63.21875 514.515625 63.21875 513.058594 C 63.21875 511.601562 64.402344 510.417969 65.859375 510.417969 C 67.316406 510.417969 68.5 511.601562 68.5 513.058594 Z M 68.5 513.058594 "/>
<path style=" stroke:none;fill-rule:nonzero;fill:rgb(2.352941%,8.627451%,16.470588%);fill-opacity:1;" d="M 15.074219 514.574219 C 15.074219 516.035156 13.894531 517.214844 12.433594 517.214844 C 10.976562 517.214844 9.792969 516.035156 9.792969 514.574219 C 9.792969 513.117188 10.976562 511.933594 12.433594 511.933594 C 13.894531 511.933594 15.074219 513.117188 15.074219 514.574219 Z M 15.074219 514.574219 "/>
<path style="fill:none;stroke-width:4;stroke-linecap:butt;stroke-linejoin:miter;stroke:rgb(0%,0%,0%);stroke-opacity:1;stroke-miterlimit:4;" d="M 56.763642 45.480356 L 69.472837 56.492867 L 82.182031 45.480356 " transform="matrix(0.890411,0,0,0.890323,0,0)"/>
<path style="fill:none;stroke-width:4;stroke-linecap:butt;stroke-linejoin:miter;stroke:rgb(0%,0%,0%);stroke-opacity:1;stroke-miterlimit:4;" d="M 8.471334 38.701738 L 21.180529 49.714249 L 33.889724 38.701738 " transform="matrix(0.890411,0,0,0.890323,0,0)"/>
<path style="fill:none;stroke-width:4;stroke-linecap:butt;stroke-linejoin:miter;stroke:rgb(0%,0%,0%);stroke-opacity:1;stroke-miterlimit:4;" d="M 63.541587 16.676715 L 76.250781 27.689227 L 88.959976 16.676715 " transform="matrix(0.890411,0,0,0.890323,0,0)"/>
<path style="fill:none;stroke-width:4;stroke-linecap:butt;stroke-linejoin:miter;stroke:rgb(0%,0%,0%);stroke-opacity:1;stroke-miterlimit:4;" d="M 133.014423 20.910609 L 145.723618 31.92312 L 158.432813 20.910609 " transform="matrix(0.890411,0,0,0.890323,0,0)"/>
<path style=" stroke:none;fill-rule:nonzero;fill:rgb(5.882353%,12.156863%,29.803922%);fill-opacity:1;" d="M 227.820312 347.492188 L 187.085938 347.492188 L 188.59375 407.835938 L 227.820312 407.835938 Z M 227.820312 347.492188 "/>
<path style=" stroke:none;fill-rule:nonzero;fill:rgb(7.843137%,14.509804%,32.54902%);fill-opacity:1;" d="M 218.015625 357.675781 L 196.890625 357.675781 L 196.890625 397.652344 L 218.015625 397.652344 Z M 218.015625 357.675781 "/>
</g>
</svg>
